<svg xmlns="http://www.w3.org/2000/svg" xmlns:xlink="http://www.w3.org/1999/xlink" version="1.1" x="0px" y="0px" viewBox="0 0 60 60" enable-background="new 0 0 60 60" xml:space="preserve" style="max-width:100%" height="100%"><g style="" fill="currentColor"><ellipse cx="30" cy="30" rx="5.5" ry="5.4" style="" fill="currentColor"></ellipse><path d="M60,30C60,13.5,46.5,0,30,0S0,13.5,0,30s13.4,30,30,30c5.4,0,10.5-1.5,14.9-4c0.9,0.6,1.9,0.9,3,0.9c3,0,5.5-2.4,5.5-5.4   c0-0.8-0.2-1.5-0.5-2.2C57.3,44.1,60,37.3,60,30z M2.8,30C2.8,15,15,2.8,30,2.8S57.2,15,57.2,30c0,6.5-2.3,12.4-6.1,17.1   c-0.9-0.7-2-1.1-3.2-1.1c-3,0-5.5,2.4-5.5,5.4c0,0.9,0.2,1.7,0.6,2.4c-3.9,2.1-8.3,3.3-13.1,3.3C15,57.2,2.8,45,2.8,30z" style="" fill="currentColor"></path></g></svg>