<svg xmlns="http://www.w3.org/2000/svg" data-name="Layer 1" viewBox="0 0 128 128" x="0px" y="0px" style="max-width:100%" height="100%"><title style="" fill="currentColor">173 Web Icon Set 117 expanded</title><path d="M11.94141,74.627A2.0002,2.0002,0,0,0,13.84082,76H35.2486l2.29633-4H15.28613L4.36133,38.9248,33,18.458,61.63867,38.9248,57.31989,52h4.213l4.36652-13.21875a2.00067,2.00067,0,0,0-.73633-2.25391l-31-22.1543a1.99753,1.99753,0,0,0-2.32617,0l-31,22.1543a2.00067,2.00067,0,0,0-.73633,2.25391Z" style="" fill="currentColor"></path><path d="M127.49023,70.334a1.9953,1.9953,0,0,0,.49707-1.55469l-4-36A1.99934,1.99934,0,0,0,122,31H74a1.99952,1.99952,0,0,0-1.95215,2.43359L76.17371,52h4.09735L76.49316,35H120.21l3.55566,32H95.58472L97.881,71H126A1.99854,1.99854,0,0,0,127.49023,70.334Z" style="" fill="currentColor"></path><path d="M50.76563,57.00391l-15.5,27a1.9989,1.9989,0,0,0,0,1.99219l15.5,27A2,2,0,0,0,52.5,114h31a2,2,0,0,0,1.73438-1.00391l15.5-27a1.9989,1.9989,0,0,0,0-1.99219l-15.5-27A2,2,0,0,0,83.5,56h-31A2,2,0,0,0,50.76563,57.00391ZM82.3418,60,96.69434,85,82.3418,110H53.6582L39.30566,85,53.6582,60Z" style="" fill="currentColor"></path><path d="M29.8291,24.37891l-18,13a1.99974,1.99974,0,1,0,2.3418,3.24219l18-13a1.99974,1.99974,0,1,0-2.3418-3.24219Z" style="" fill="currentColor"></path><path d="M45.30371,88.05957l10,16a2,2,0,1,0,3.39258-2.11914l-10-16a2,2,0,0,0-3.39258,2.11914Z" style="" fill="currentColor"></path><path d="M117.998,64a1.99849,1.99849,0,0,0,1.99219-2.19922l-2-20a2.00018,2.00018,0,0,0-3.98047.39844l2,20A2.00051,2.00051,0,0,0,117.998,64Z" style="" fill="currentColor"></path></svg>