<svg xmlns="http://www.w3.org/2000/svg" xmlns:xlink="http://www.w3.org/1999/xlink" version="1.1" x="0px" y="0px" viewBox="0 0 100 100" style="enable-background:new 0 0 100 100;max-width:100%" xml:space="preserve" height="100%"><path d="M72.2,7.5c-1.7-2.6-4.3-3.7-7.1-4.5c-3.3-1-6,0.2-8.6,2.2c-2.3,1.8-3.1,4.3-4.2,6.9c-2.8,6.7-3.9,13.7-4.7,20.7  c-1,8-1,16.2-1.4,24.3c0,2.7,0.5,5.4-0.2,8c-0.8,3.3-0.9,6.6-1,9.9c-0.1,2.2-0.4,4.4-0.9,6.6c-0.7,2.8-2.2,5.1-4.8,6.6  c-1.9,1.1-2.9,0.7-3.1-1.5c-0.2-1.9-1.1-2.9-2.8-3.2c-1.5-0.3-3.5,0.8-4.2,2.2c-1.4,2.6-0.9,6.4,1.4,8.2c2.5,1.8,4.9,4.5,8.6,2.7  c0.2-0.1,0.5,0,0.7,0.2c0.4-0.2,0.7-0.4,1.1-0.7c0.6-0.6,1.3-1,2-1.3c0.1-0.2,0.2-0.3,0.4-0.5c3.2-4.2,5.7-8.6,6.9-13.8  c1.1-4.7,1-9.5,1.6-14.2c0.6-5.5,1.3-11,1.7-16.6c0.4-4.5,0.5-9.1,0.6-13.6c0.1-4.9,1.4-9.7,1.3-14.6c-0.1-3.5,1.5-6.4,2.6-9.6  c0.3-0.9,1-1.4,1.7-2c3-2.2,5.2-1.3,5.8,2.4c0.3,1.9,1.3,2.7,3.1,2.5C72.6,14.3,74.3,10.8,72.2,7.5z" style="" fill="currentColor"></path></svg>