<svg xmlns="http://www.w3.org/2000/svg" data-name="Layer 1" viewBox="0 0 100 100" x="0px" y="0px" style="max-width:100%" height="100%"><title style="" fill="currentColor">Artboard 16</title><path d="M1.1,94.89a5,5,0,0,1,0-2,5.15,5.15,0,0,1,.76-1.84,5,5,0,0,1,.63-.78,5.1,5.1,0,0,1,7.85.78,5.11,5.11,0,0,1,.76,3.83,5.15,5.15,0,0,1-.29,1,5.09,5.09,0,0,1-.47.88,5,5,0,0,1-.63.78,5.1,5.1,0,0,1-7.22,0,5,5,0,0,1-.63-.78,5.16,5.16,0,0,1-.76-1.84Zm5-61.73A5.11,5.11,0,1,0,1,28.05,5.11,5.11,0,0,0,6.1,33.16Zm0,21.95A5.1,5.1,0,1,0,1,50,5.1,5.1,0,0,0,6.1,55.11Zm0,21.95A5.1,5.1,0,1,0,1,71.95,5.1,5.1,0,0,0,6.1,77.05Zm-4.71-69a5.21,5.21,0,0,0,.47.88,5,5,0,0,0,.63.78,5.11,5.11,0,0,0,7.22,0,5.12,5.12,0,0,0,1.1-1.66,5.14,5.14,0,0,0,.29-1,5,5,0,0,0,0-2A5.1,5.1,0,0,0,2.49,2.49a5,5,0,0,0-.63.78,5.23,5.23,0,0,0-.47.88,5.17,5.17,0,0,0-.29,1,5,5,0,0,0,0,2A5.18,5.18,0,0,0,1.39,8.06ZM91.06,98.14a5.21,5.21,0,0,0,.88.47,5.15,5.15,0,0,0,1,.29,5,5,0,0,0,2,0,5.15,5.15,0,0,0,1.84-.76,5,5,0,0,0,.78-.64,5.11,5.11,0,0,0-2.61-8.61,5,5,0,0,0-2,0,5.1,5.1,0,0,0-2.61,8.61A5.08,5.08,0,0,0,91.06,98.14ZM44.9,93.89A5.11,5.11,0,1,0,50,88.79,5.11,5.11,0,0,0,44.9,93.89Zm-21.95,0a5.11,5.11,0,1,0,5.11-5.1A5.11,5.11,0,0,0,22.95,93.89Zm49,5.11a5.11,5.11,0,1,0-5.11-5.11A5.1,5.1,0,0,0,71.95,99ZM23.38,81.2H33.53a4.58,4.58,0,0,0,4.58-4.58V60.84a4.58,4.58,0,0,0-4.58-4.58H23.38a4.58,4.58,0,0,0-4.58,4.58V76.62A4.58,4.58,0,0,0,23.38,81.2Zm66.74-4.58V45.84a4.58,4.58,0,0,0-4.58-4.57H75.38a4.58,4.58,0,0,0-4.57,4.57V76.62a4.58,4.58,0,0,0,4.57,4.58H85.54A4.58,4.58,0,0,0,90.12,76.62Zm-26,0v-58a4.58,4.58,0,0,0-4.58-4.58H49.38a4.58,4.58,0,0,0-4.58,4.58v58a4.58,4.58,0,0,0,4.58,4.58H59.53A4.58,4.58,0,0,0,64.11,76.62Z" style="" fill="currentColor"></path></svg>