<svg xmlns="http://www.w3.org/2000/svg" xmlns:xlink="http://www.w3.org/1999/xlink" version="1.1" x="0px" y="0px" viewBox="0 0 32 32" style="enable-background:new 0 0 32 32;max-width:100%" xml:space="preserve" height="100%"><g style="" fill="currentColor"><path d="M29.0001,30h-26c-0.4043,0-0.7695-0.2437-0.9238-0.6172c-0.1553-0.374-0.0693-0.8037,0.2168-1.0898l26-26   c0.3906-0.3906,1.0234-0.3906,1.4141,0s0.3906,1.0234,0,1.4141L5.4142,28h23.5859c0.5527,0,1,0.4478,1,1S29.5528,30,29.0001,30z" style="" fill="currentColor"></path><path d="M14.0001,29c-0.5527,0-1-0.4478-1-1c0-2.2056-1.7939-4-4-4c-0.5527,0-1-0.4478-1-1s0.4473-1,1-1c3.3086,0,6,2.6914,6,6   C15.0001,28.5522,14.5528,29,14.0001,29z" style="" fill="currentColor"></path><path d="M16.5001,25c-1.3789,0-2.5-1.1216-2.5-2.5s1.1211-2.5,2.5-2.5s2.5,1.1216,2.5,2.5S17.879,25,16.5001,25z M16.5001,22   c-0.2754,0-0.5,0.2241-0.5,0.5s0.2246,0.5,0.5,0.5s0.5-0.2241,0.5-0.5S16.7755,22,16.5001,22z" style="" fill="currentColor"></path></g></svg>