<svg xmlns="http://www.w3.org/2000/svg" viewBox="0 0 68 68" x="0px" y="0px" style="max-width:100%" height="100%"><path fill="currentColor" d="M328,81 L328,74 L329,74 C330.104569,74 331,73.1045695 331,72 C331,70.8954305 330.104569,70 329,70 L328,70 L328,62.8284271 L330.585786,65.4142136 C331.366835,66.1952621 332.633165,66.1952621 333.414214,65.4142136 C334.195262,64.633165 334.195262,63.366835 333.414214,62.5857864 L327.414214,56.5857864 C326.633165,55.8047379 325.366835,55.8047379 324.585786,56.5857864 L318.585786,62.5857864 C317.804738,63.366835 317.804738,64.633165 318.585786,65.4142136 C319.366835,66.1952621 320.633165,66.1952621 321.414214,65.4142136 L324,62.8284271 L324,92 L298,92 C296.895431,92 296,92.8954305 296,94 C296,95.1045695 296.895431,96 298,96 L324,96 L324,122 C324,123.104569 324.895431,124 326,124 C327.104569,124 328,123.104569 328,122 L328,96 L357.171573,96 L354.585786,98.5857864 C353.804738,99.366835 353.804738,100.633165 354.585786,101.414214 C355.366835,102.195262 356.633165,102.195262 357.414214,101.414214 L363.414214,95.4142136 C364.195262,94.633165 364.195262,93.366835 363.414214,92.5857864 L357.414214,86.5857864 C356.633165,85.8047379 355.366835,85.8047379 354.585786,86.5857864 C353.804738,87.366835 353.804738,88.633165 354.585786,89.4142136 L357.171573,92 L350,92 L350,91 C350,89.8954305 349.104569,89 348,89 C346.895431,89 346,89.8954305 346,91 L346,92 L339,92 L339,91 C339,89.8954305 338.104569,89 337,89 C335.895431,89 335,89.8954305 335,91 L335,92 L328,92 L328,85 L329,85 C330.104569,85 331,84.1045695 331,83 C331,81.8954305 330.104569,81 329,81 L328,81 Z" transform="translate(-296 -56)" style=""></path></svg>