<svg xmlns="http://www.w3.org/2000/svg" xmlns:xlink="http://www.w3.org/1999/xlink" xmlns:sketch="http://www.bohemiancoding.com/sketch/ns" viewBox="0 0 100 100" version="1.1" x="0px" y="0px" style="max-width:100%" height="100%"><title style="" fill="currentColor">chart_bar_increase 2</title><description style="" fill="currentColor">Created with Sketch.</description><g stroke="currentColor" stroke-width="1" fill="none" fill-rule="evenodd" sketch:type="MSPage" style=""><path d="M42.8784584,16.9942673 L49.9495262,24.0653351 L50.3030796,3.20568505 L29.4434296,3.55923844 L36.5144974,10.6303062 L23.7878135,23.3569902 C23.7878135,23.3569902 22.3703746,24.774429 25.5543444,27.9544203 C28.7383144,31.1344113 30.1517745,29.7209512 30.1517745,29.7209512 L42.8784584,16.9942673 L42.8784584,16.9942673 Z M76.920514,8.95263672 C76.3727563,8.95263672 75.9287109,9.40512727 75.9287109,9.95607922 L75.9287109,95.9491942 C75.9287109,96.5033802 76.3840165,96.9526367 76.920514,96.9526367 L94.9369078,96.9526367 C95.4846656,96.9526367 95.9287109,96.5001462 95.9287109,95.9491942 L95.9287109,9.95607922 C95.9287109,9.40189323 95.4734054,8.95263672 94.9369078,8.95263672 L76.920514,8.95263672 Z M26.920514,42.9526367 C26.3727563,42.9526367 25.9287109,43.4032503 25.9287109,43.9594425 L25.9287109,95.945831 C25.9287109,96.5018744 26.3840165,96.9526367 26.920514,96.9526367 L44.9369078,96.9526367 C45.4846656,96.9526367 45.9287109,96.5020231 45.9287109,95.945831 L45.9287109,43.9594425 C45.9287109,43.403399 45.4734054,42.9526367 44.9369078,42.9526367 L26.920514,42.9526367 Z M51.920514,28.9526367 C51.3727563,28.9526367 50.9287109,29.4048488 50.9287109,29.9533498 L50.9287109,95.9519236 C50.9287109,96.5046022 51.3840165,96.9526367 51.920514,96.9526367 L69.9369078,96.9526367 C70.4846656,96.9526367 70.9287109,96.5004246 70.9287109,95.9519236 L70.9287109,29.9533498 C70.9287109,29.4006712 70.4734054,28.9526367 69.9369078,28.9526367 L51.920514,28.9526367 Z M1.92051405,59.9526367 C1.37275631,59.9526367 0.928710938,60.3939399 0.928710938,60.9614865 L0.928710938,95.943787 C0.928710938,96.5009593 1.38401651,96.9526367 1.92051405,96.9526367 L19.9369078,96.9526367 C20.4846656,96.9526367 20.9287109,96.5113335 20.9287109,95.943787 L20.9287109,60.9614865 C20.9287109,60.4043141 20.4734054,59.9526367 19.9369078,59.9526367 L1.92051405,59.9526367 Z M54.5,32.5 L54.5,52.9526367 L67.5,52.9526367 L67.5,32.5 L54.5,32.5 Z M79.5,12.5 L79.5,42.7263184 L92.5,42.7263184 L92.5,12.5 L79.5,12.5 Z M29.5,46.5 L29.5,59.9526367 L42.5,59.9526367 L42.5,46.5 L29.5,46.5 Z M4.5,64.5 L4.5,74 L17.5,74 L17.5,64.5 L4.5,64.5 Z" fill="currentColor" sketch:type="MSShapeGroup" style=""></path></g></svg>