<svg width="926" height="181" viewBox="0 0 926 181" fill="none" xmlns="http://www.w3.org/2000/svg">
<path d="M298.2 91.2H280.08V54.24H246.12V91.2H228V5.52H246.12V39.12H280.08V5.52H298.2V91.2Z" fill="#2C1D4F"/>
<path d="M345.198 24.36C353.998 24.36 360.718 26.28 365.358 30.12C370.078 33.88 372.438 39.68 372.438 47.52V91.2H359.958L356.478 82.32H355.998C354.158 84.64 352.238 86.56 350.238 88.08C348.318 89.6 346.078 90.68 343.518 91.32C341.038 92.04 337.958 92.4 334.278 92.4C330.438 92.4 326.958 91.68 323.838 90.24C320.798 88.72 318.398 86.44 316.638 83.4C314.878 80.28 313.998 76.36 313.998 71.64C313.998 64.68 316.438 59.56 321.318 56.28C326.198 52.92 333.518 51.08 343.278 50.76L354.678 50.4V47.52C354.678 44.08 353.758 41.56 351.918 39.96C350.158 38.36 347.678 37.56 344.478 37.56C341.278 37.56 338.158 38.04 335.118 39C332.078 39.88 329.038 41 325.998 42.36L320.118 30.24C323.638 28.4 327.518 26.96 331.758 25.92C336.078 24.88 340.558 24.36 345.198 24.36ZM347.718 61.08C341.958 61.24 337.958 62.28 335.718 64.2C333.478 66.12 332.358 68.64 332.358 71.76C332.358 74.48 333.158 76.44 334.758 77.64C336.358 78.76 338.438 79.32 340.998 79.32C344.838 79.32 348.078 78.2 350.718 75.96C353.358 73.64 354.678 70.4 354.678 66.24V60.84L347.718 61.08Z" fill="#2C1D4F"/>
<path d="M427.22 24.48C434.58 24.48 440.54 27.36 445.1 33.12C449.66 38.8 451.94 47.2 451.94 58.32C451.94 65.76 450.86 72.04 448.7 77.16C446.54 82.2 443.58 86 439.82 88.56C436.06 91.12 431.7 92.4 426.74 92.4C423.62 92.4 420.9 92 418.58 91.2C416.34 90.4 414.42 89.36 412.82 88.08C411.22 86.8 409.82 85.44 408.62 84H407.66C407.98 85.52 408.22 87.12 408.38 88.8C408.54 90.4 408.62 92 408.62 93.6V120H390.74V25.68H405.26L407.78 34.2H408.62C409.82 32.44 411.26 30.84 412.94 29.4C414.62 27.88 416.62 26.68 418.94 25.8C421.34 24.92 424.1 24.48 427.22 24.48ZM421.46 38.76C418.34 38.76 415.86 39.4 414.02 40.68C412.18 41.96 410.82 43.92 409.94 46.56C409.14 49.12 408.7 52.36 408.62 56.28V58.2C408.62 62.44 409.02 66.04 409.82 69C410.62 71.88 411.98 74.08 413.9 75.6C415.82 77.12 418.42 77.88 421.7 77.88C424.42 77.88 426.66 77.12 428.42 75.6C430.18 74.08 431.5 71.84 432.38 68.88C433.26 65.92 433.7 62.32 433.7 58.08C433.7 51.68 432.7 46.88 430.7 43.68C428.78 40.4 425.7 38.76 421.46 38.76Z" fill="#2C1D4F"/>
<path d="M503.157 24.48C510.517 24.48 516.477 27.36 521.037 33.12C525.597 38.8 527.877 47.2 527.877 58.32C527.877 65.76 526.797 72.04 524.637 77.16C522.477 82.2 519.517 86 515.757 88.56C511.997 91.12 507.637 92.4 502.677 92.4C499.557 92.4 496.837 92 494.517 91.2C492.277 90.4 490.357 89.36 488.757 88.08C487.157 86.8 485.757 85.44 484.557 84H483.597C483.917 85.52 484.157 87.12 484.317 88.8C484.477 90.4 484.557 92 484.557 93.6V120H466.677V25.68H481.197L483.717 34.2H484.557C485.757 32.44 487.197 30.84 488.877 29.4C490.557 27.88 492.557 26.68 494.877 25.8C497.277 24.92 500.037 24.48 503.157 24.48ZM497.397 38.76C494.277 38.76 491.797 39.4 489.957 40.68C488.117 41.96 486.757 43.92 485.877 46.56C485.077 49.12 484.637 52.36 484.557 56.28V58.2C484.557 62.44 484.957 66.04 485.757 69C486.557 71.88 487.917 74.08 489.837 75.6C491.757 77.12 494.357 77.88 497.637 77.88C500.357 77.88 502.597 77.12 504.357 75.6C506.117 74.08 507.437 71.84 508.317 68.88C509.197 65.92 509.637 62.32 509.637 58.08C509.637 51.68 508.637 46.88 506.637 43.68C504.717 40.4 501.637 38.76 497.397 38.76Z" fill="#2C1D4F"/>
<path d="M530.911 25.68H550.471L562.831 62.52C563.231 63.72 563.551 64.92 563.791 66.12C564.111 67.32 564.351 68.56 564.511 69.84C564.751 71.12 564.911 72.48 564.991 73.92H565.351C565.591 71.84 565.911 69.88 566.311 68.04C566.791 66.12 567.311 64.28 567.871 62.52L579.991 25.68H599.191L571.471 99.6C569.791 104.08 567.591 107.84 564.871 110.88C562.231 113.92 559.151 116.2 555.631 117.72C552.111 119.24 548.271 120 544.111 120C542.111 120 540.351 119.88 538.831 119.64C537.391 119.48 536.111 119.28 534.991 119.04V104.88C535.871 105.04 536.911 105.2 538.111 105.36C539.391 105.52 540.711 105.6 542.071 105.6C544.551 105.6 546.671 105.08 548.431 104.04C550.271 103 551.791 101.56 552.991 99.72C554.191 97.96 555.151 96.04 555.871 93.96L556.951 90.72L530.911 25.68Z" fill="#2C1D4F"/>
<path d="M677.563 19.44C674.123 19.44 671.043 20.12 668.323 21.48C665.683 22.84 663.443 24.8 661.603 27.36C659.763 29.84 658.363 32.88 657.403 36.48C656.523 40.08 656.083 44.12 656.083 48.6C656.083 54.68 656.803 59.88 658.243 64.2C659.763 68.44 662.123 71.68 665.323 73.92C668.523 76.16 672.603 77.28 677.563 77.28C681.083 77.28 684.563 76.88 688.003 76.08C691.523 75.28 695.323 74.16 699.403 72.72V87.96C695.643 89.48 691.923 90.6 688.243 91.32C684.563 92.04 680.443 92.4 675.883 92.4C667.083 92.4 659.803 90.6 654.043 87C648.363 83.32 644.163 78.2 641.443 71.64C638.723 65 637.363 57.28 637.363 48.48C637.363 42 638.243 36.08 640.003 30.72C641.763 25.28 644.323 20.6 647.683 16.68C651.123 12.76 655.323 9.72 660.283 7.56C665.323 5.4 671.083 4.32 677.563 4.32C681.803 4.32 686.043 4.88 690.283 6C694.603 7.04 698.723 8.48 702.643 10.32L696.763 25.08C693.563 23.56 690.323 22.24 687.043 21.12C683.843 20 680.683 19.44 677.563 19.44Z" fill="#2C1D4F"/>
<path d="M734.049 18.6C734.049 21.8 733.929 24.88 733.689 27.84C733.529 30.8 733.369 32.88 733.209 34.08H734.169C735.609 31.84 737.289 30.04 739.209 28.68C741.129 27.24 743.249 26.2 745.569 25.56C747.969 24.84 750.489 24.48 753.129 24.48C757.849 24.48 761.969 25.32 765.489 27C769.009 28.68 771.729 31.28 773.649 34.8C775.649 38.32 776.649 42.88 776.649 48.48V91.2H758.769V52.92C758.769 48.2 757.889 44.68 756.129 42.36C754.449 39.96 751.809 38.76 748.209 38.76C744.609 38.76 741.769 39.6 739.689 41.28C737.689 42.96 736.249 45.4 735.369 48.6C734.489 51.8 734.049 55.72 734.049 60.36V91.2H716.169V0H734.049V18.6Z" fill="#2C1D4F"/>
<path d="M812.917 25.68V91.2H795.037V25.68H812.917ZM804.037 0C806.677 0 808.957 0.640001 810.877 1.92C812.797 3.12 813.757 5.4 813.757 8.76C813.757 12.04 812.797 14.32 810.877 15.6C808.957 16.88 806.677 17.52 804.037 17.52C801.317 17.52 798.997 16.88 797.077 15.6C795.237 14.32 794.317 12.04 794.317 8.76C794.317 5.4 795.237 3.12 797.077 1.92C798.997 0.640001 801.317 0 804.037 0Z" fill="#2C1D4F"/>
<path d="M849.479 91.2H831.599V0H849.479V91.2Z" fill="#2C1D4F"/>
<path d="M888.922 92.4C881.642 92.4 875.682 89.56 871.042 83.88C866.482 78.12 864.202 69.68 864.202 58.56C864.202 47.36 866.522 38.88 871.162 33.12C875.802 27.36 881.882 24.48 889.402 24.48C892.522 24.48 895.282 24.92 897.682 25.8C900.082 26.6 902.122 27.72 903.802 29.16C905.562 30.6 907.042 32.24 908.242 34.08H908.842C908.602 32.8 908.322 30.96 908.002 28.56C907.682 26.08 907.522 23.56 907.522 21V0H925.402V91.2H911.722L908.242 82.68H907.522C906.402 84.44 904.962 86.08 903.202 87.6C901.522 89.04 899.522 90.2 897.202 91.08C894.882 91.96 892.122 92.4 888.922 92.4ZM895.162 78.12C900.122 78.12 903.602 76.68 905.602 73.8C907.602 70.84 908.642 66.44 908.722 60.6V58.68C908.722 52.28 907.722 47.4 905.722 44.04C903.802 40.68 900.202 39 894.922 39C891.002 39 887.922 40.72 885.682 44.16C883.442 47.52 882.322 52.4 882.322 58.8C882.322 65.2 883.442 70.04 885.682 73.32C887.922 76.52 891.082 78.12 895.162 78.12Z" fill="#2C1D4F"/>
<path d="M235.648 159.32C234.651 159.32 233.759 159.512 232.971 159.898C232.206 160.283 231.557 160.839 231.024 161.565C230.49 162.268 230.085 163.129 229.807 164.15C229.552 165.17 229.424 166.315 229.424 167.585C229.424 169.308 229.633 170.782 230.05 172.007C230.49 173.209 231.174 174.127 232.102 174.762C233.029 175.397 234.211 175.714 235.648 175.714C236.668 175.714 237.676 175.601 238.673 175.374C239.693 175.147 240.794 174.83 241.976 174.422V178.741C240.887 179.172 239.809 179.49 238.743 179.694C237.676 179.898 236.483 180 235.161 180C232.611 180 230.502 179.49 228.833 178.469C227.187 177.426 225.97 175.975 225.182 174.116C224.394 172.234 224 170.045 224 167.551C224 165.714 224.255 164.036 224.765 162.517C225.275 160.975 226.017 159.649 226.99 158.537C227.987 157.426 229.204 156.565 230.641 155.952C232.102 155.34 233.771 155.034 235.648 155.034C236.877 155.034 238.105 155.193 239.334 155.51C240.586 155.805 241.779 156.213 242.915 156.735L241.211 160.918C240.284 160.488 239.345 160.113 238.395 159.796C237.468 159.478 236.552 159.32 235.648 159.32Z" fill="#26263C" fill-opacity="0.42"/>
<path d="M271.069 179.66H265.819V169.184H255.979V179.66H250.729V155.374H255.979V164.898H265.819V155.374H271.069V179.66Z" fill="#26263C" fill-opacity="0.42"/>
<path d="M290.077 179.66H278.776V176.735L281.801 175.374V159.66L278.776 158.299V155.374H290.077V158.299L287.052 159.66V175.374L290.077 176.735V179.66Z" fill="#26263C" fill-opacity="0.42"/>
<path d="M297.784 179.66V155.374H303.035V175.408H313.118V179.66H297.784Z" fill="#26263C" fill-opacity="0.42"/>
<path d="M341.506 167.279C341.506 170 340.973 172.279 339.906 174.116C338.84 175.952 337.287 177.336 335.247 178.265C333.23 179.195 330.796 179.66 327.945 179.66H320.922V155.374H328.71C331.306 155.374 333.555 155.828 335.456 156.735C337.38 157.642 338.863 158.98 339.906 160.748C340.973 162.494 341.506 164.671 341.506 167.279ZM336.047 167.415C336.047 165.624 335.78 164.15 335.247 162.993C334.714 161.837 333.914 160.986 332.848 160.442C331.805 159.875 330.518 159.592 328.988 159.592H326.172V175.408H328.432C331.005 175.408 332.917 174.739 334.169 173.401C335.421 172.063 336.047 170.068 336.047 167.415Z" fill="#26263C" fill-opacity="0.42"/>
<path d="M357.369 155.374C359.618 155.374 361.472 155.646 362.932 156.19C364.393 156.712 365.482 157.517 366.201 158.605C366.919 159.671 367.279 161.02 367.279 162.653C367.279 163.764 367.059 164.739 366.618 165.578C366.201 166.395 365.633 167.098 364.914 167.687C364.219 168.254 363.466 168.719 362.654 169.082L369.956 179.66H364.115L358.204 170.34H355.387V179.66H350.137V155.374H357.369ZM356.987 159.592H355.387V166.156H357.091C358.25 166.156 359.189 166.032 359.907 165.782C360.626 165.533 361.148 165.159 361.472 164.66C361.797 164.138 361.959 163.515 361.959 162.789C361.959 162.018 361.773 161.406 361.403 160.952C361.055 160.476 360.51 160.136 359.768 159.932C359.05 159.705 358.123 159.592 356.987 159.592Z" fill="#26263C" fill-opacity="0.42"/>
<path d="M390.859 179.66H376.568V155.374H390.859V159.592H381.818V164.932H390.233V169.15H381.818V175.408H390.859V179.66Z" fill="#26263C" fill-opacity="0.42"/>
<path d="M421.511 179.66H414.835L404.022 161.293H403.883C403.906 161.859 403.929 162.438 403.952 163.027C403.975 163.594 403.998 164.172 404.022 164.762C404.068 165.329 404.103 165.907 404.126 166.497C404.149 167.063 404.172 167.642 404.195 168.231V179.66H399.501V155.374H406.143L416.921 173.571H417.026C417.003 173.005 416.979 172.449 416.956 171.905C416.933 171.338 416.91 170.782 416.887 170.238C416.887 169.671 416.875 169.116 416.852 168.571C416.829 168.005 416.806 167.438 416.782 166.871V155.374H421.511V179.66Z" fill="#26263C" fill-opacity="0.42"/>
<path d="M435.123 155.374L434.428 164.15H431.09L430.394 155.374H435.123Z" fill="#26263C" fill-opacity="0.42"/>
<path d="M458.615 172.925C458.615 174.354 458.256 175.601 457.537 176.667C456.818 177.732 455.775 178.56 454.408 179.15C453.063 179.717 451.417 180 449.47 180C448.612 180 447.766 179.943 446.932 179.83C446.121 179.717 445.332 179.558 444.568 179.354C443.826 179.127 443.119 178.855 442.447 178.537V173.741C443.629 174.24 444.846 174.705 446.097 175.136C447.372 175.544 448.636 175.748 449.887 175.748C450.745 175.748 451.429 175.635 451.939 175.408C452.472 175.181 452.854 174.875 453.086 174.49C453.341 174.104 453.469 173.662 453.469 173.163C453.469 172.551 453.249 172.029 452.808 171.599C452.391 171.168 451.823 170.771 451.104 170.408C450.386 170.023 449.563 169.615 448.636 169.184C448.056 168.912 447.43 168.594 446.758 168.231C446.086 167.846 445.437 167.381 444.811 166.837C444.208 166.27 443.71 165.59 443.316 164.796C442.922 164.002 442.725 163.05 442.725 161.939C442.725 160.488 443.061 159.252 443.733 158.231C444.428 157.188 445.402 156.395 446.654 155.85C447.929 155.306 449.424 155.034 451.139 155.034C452.437 155.034 453.666 155.181 454.825 155.476C456.007 155.771 457.236 156.19 458.51 156.735L456.807 160.748C455.671 160.295 454.651 159.943 453.747 159.694C452.843 159.444 451.916 159.32 450.965 159.32C450.316 159.32 449.76 159.422 449.296 159.626C448.833 159.83 448.473 160.113 448.218 160.476C447.987 160.839 447.871 161.27 447.871 161.769C447.871 162.336 448.045 162.823 448.392 163.231C448.74 163.617 449.262 163.991 449.957 164.354C450.652 164.717 451.522 165.147 452.565 165.646C453.84 166.236 454.918 166.848 455.798 167.483C456.702 168.118 457.398 168.866 457.885 169.728C458.371 170.59 458.615 171.655 458.615 172.925Z" fill="#26263C" fill-opacity="0.42"/>
<path d="M493.404 179.66H479.114V155.374H493.404V159.592H484.364V164.932H492.778V169.15H484.364V175.408H493.404V179.66Z" fill="#26263C" fill-opacity="0.42"/>
<path d="M522.631 167.279C522.631 170 522.098 172.279 521.032 174.116C519.966 175.952 518.412 177.336 516.373 178.265C514.356 179.195 511.922 179.66 509.071 179.66H502.047V155.374H509.836C512.432 155.374 514.68 155.828 516.581 156.735C518.505 157.642 519.989 158.98 521.032 160.748C522.098 162.494 522.631 164.671 522.631 167.279ZM517.172 167.415C517.172 165.624 516.906 164.15 516.373 162.993C515.839 161.837 515.04 160.986 513.973 160.442C512.93 159.875 511.644 159.592 510.114 159.592H507.298V175.408H509.558C512.131 175.408 514.043 174.739 515.295 173.401C516.546 172.063 517.172 170.068 517.172 167.415Z" fill="#26263C" fill-opacity="0.42"/>
<path d="M551.464 171.088C551.464 172.766 551.082 174.286 550.317 175.646C549.575 176.984 548.439 178.05 546.909 178.844C545.402 179.615 543.49 180 541.172 180C537.88 180 535.377 179.184 533.662 177.551C531.946 175.896 531.089 173.719 531.089 171.02V155.374H536.339V170.238C536.339 172.234 536.756 173.639 537.591 174.456C538.425 175.272 539.665 175.68 541.311 175.68C542.47 175.68 543.409 175.488 544.128 175.102C544.846 174.717 545.368 174.116 545.692 173.299C546.04 172.483 546.214 171.451 546.214 170.204V155.374H551.464V171.088Z" fill="#26263C" fill-opacity="0.42"/>
<path d="M571.557 159.32C570.56 159.32 569.667 159.512 568.879 159.898C568.114 160.283 567.465 160.839 566.932 161.565C566.399 162.268 565.993 163.129 565.715 164.15C565.46 165.17 565.333 166.315 565.333 167.585C565.333 169.308 565.541 170.782 565.959 172.007C566.399 173.209 567.083 174.127 568.01 174.762C568.937 175.397 570.119 175.714 571.557 175.714C572.577 175.714 573.585 175.601 574.582 175.374C575.602 175.147 576.703 174.83 577.885 174.422V178.741C576.795 179.172 575.717 179.49 574.651 179.694C573.585 179.898 572.391 180 571.07 180C568.52 180 566.411 179.49 564.742 178.469C563.096 177.426 561.879 175.975 561.091 174.116C560.303 172.234 559.908 170.045 559.908 167.551C559.908 165.714 560.163 164.036 560.673 162.517C561.183 160.975 561.925 159.649 562.899 158.537C563.896 157.426 565.112 156.565 566.55 155.952C568.01 155.34 569.679 155.034 571.557 155.034C572.785 155.034 574.014 155.193 575.242 155.51C576.494 155.805 577.688 156.213 578.824 156.735L577.12 160.918C576.193 160.488 575.254 160.113 574.303 159.796C573.376 159.478 572.461 159.32 571.557 159.32Z" fill="#26263C" fill-opacity="0.42"/>
<path d="M601.832 179.66L600.024 173.878H590.983L589.175 179.66H583.508L592.27 155.272H598.703L607.499 179.66H601.832ZM596.964 163.912C596.848 163.526 596.697 163.039 596.512 162.449C596.327 161.859 596.141 161.259 595.956 160.646C595.77 160.034 595.62 159.501 595.504 159.048C595.388 159.501 595.225 160.068 595.017 160.748C594.831 161.406 594.646 162.041 594.461 162.653C594.298 163.243 594.171 163.662 594.078 163.912L592.305 169.558H598.772L596.964 163.912Z" fill="#26263C" fill-opacity="0.42"/>
<path d="M621.238 179.66H615.988V159.66H609.242V155.374H627.983V159.66H621.238V179.66Z" fill="#26263C" fill-opacity="0.42"/>
<path d="M644.572 179.66H633.272V176.735L636.297 175.374V159.66L633.272 158.299V155.374H644.572V158.299L641.547 159.66V175.374L644.572 176.735V179.66Z" fill="#26263C" fill-opacity="0.42"/>
<path d="M674.811 167.483C674.811 169.365 674.568 171.077 674.081 172.619C673.618 174.138 672.899 175.454 671.925 176.565C670.975 177.676 669.746 178.526 668.24 179.116C666.756 179.705 665.006 180 662.989 180C660.973 180 659.211 179.705 657.704 179.116C656.221 178.503 654.992 177.653 654.019 176.565C653.068 175.454 652.35 174.127 651.863 172.585C651.399 171.043 651.167 169.331 651.167 167.449C651.167 164.932 651.585 162.744 652.419 160.884C653.277 159.025 654.575 157.585 656.313 156.565C658.075 155.522 660.312 155 663.024 155C665.713 155 667.927 155.522 669.665 156.565C671.404 157.585 672.69 159.036 673.525 160.918C674.382 162.778 674.811 164.966 674.811 167.483ZM656.696 167.483C656.696 169.184 656.916 170.646 657.357 171.871C657.797 173.095 658.481 174.036 659.408 174.694C660.335 175.351 661.529 175.68 662.989 175.68C664.496 175.68 665.701 175.351 666.605 174.694C667.533 174.036 668.205 173.095 668.622 171.871C669.063 170.646 669.283 169.184 669.283 167.483C669.283 164.921 668.796 162.914 667.822 161.463C666.849 160.011 665.249 159.286 663.024 159.286C661.541 159.286 660.335 159.615 659.408 160.272C658.481 160.93 657.797 161.871 657.357 163.095C656.916 164.32 656.696 165.782 656.696 167.483Z" fill="#26263C" fill-opacity="0.42"/>
<path d="M705.441 179.66H698.765L687.951 161.293H687.812C687.835 161.859 687.858 162.438 687.881 163.027C687.905 163.594 687.928 164.172 687.951 164.762C687.997 165.329 688.032 165.907 688.055 166.497C688.078 167.063 688.102 167.642 688.125 168.231V179.66H683.431V155.374H690.072L700.851 173.571H700.955C700.932 173.005 700.909 172.449 700.886 171.905C700.862 171.338 700.839 170.782 700.816 170.238C700.816 169.671 700.804 169.116 700.781 168.571C700.758 168.005 700.735 167.438 700.712 166.871V155.374H705.441V179.66Z" fill="#26263C" fill-opacity="0.42"/>
<path d="M730.388 179.66L728.579 173.878H719.539L717.731 179.66H712.063L720.826 155.272H727.258L736.055 179.66H730.388ZM725.52 163.912C725.404 163.526 725.253 163.039 725.068 162.449C724.882 161.859 724.697 161.259 724.511 160.646C724.326 160.034 724.175 159.501 724.059 159.048C723.943 159.501 723.781 160.068 723.573 160.748C723.387 161.406 723.202 162.041 723.016 162.653C722.854 163.243 722.726 163.662 722.634 163.912L720.86 169.558H727.328L725.52 163.912Z" fill="#26263C" fill-opacity="0.42"/>
<path d="M742.676 179.66V155.374H747.927V175.408H758.01V179.66H742.676Z" fill="#26263C" fill-opacity="0.42"/>
<path d="M788.858 159.32C787.862 159.32 786.969 159.512 786.181 159.898C785.416 160.283 784.767 160.839 784.234 161.565C783.701 162.268 783.295 163.129 783.017 164.15C782.762 165.17 782.635 166.315 782.635 167.585C782.635 169.308 782.843 170.782 783.26 172.007C783.701 173.209 784.385 174.127 785.312 174.762C786.239 175.397 787.421 175.714 788.858 175.714C789.878 175.714 790.887 175.601 791.883 175.374C792.903 175.147 794.004 174.83 795.187 174.422V178.741C794.097 179.172 793.019 179.49 791.953 179.694C790.887 179.898 789.693 180 788.372 180C785.822 180 783.712 179.49 782.043 178.469C780.398 177.426 779.181 175.975 778.392 174.116C777.604 172.234 777.21 170.045 777.21 167.551C777.21 165.714 777.465 164.036 777.975 162.517C778.485 160.975 779.227 159.649 780.201 158.537C781.197 157.426 782.414 156.565 783.851 155.952C785.312 155.34 786.981 155.034 788.858 155.034C790.087 155.034 791.316 155.193 792.544 155.51C793.796 155.805 794.99 156.213 796.125 156.735L794.422 160.918C793.494 160.488 792.556 160.113 791.605 159.796C790.678 159.478 789.762 159.32 788.858 159.32Z" fill="#26263C" fill-opacity="0.42"/>
<path d="M818.23 179.66H803.939V155.374H818.23V159.592H809.189V164.932H817.604V169.15H809.189V175.408H818.23V179.66Z" fill="#26263C" fill-opacity="0.42"/>
<path d="M848.882 179.66H842.206L831.393 161.293H831.254C831.277 161.859 831.3 162.438 831.323 163.027C831.346 163.594 831.37 164.172 831.393 164.762C831.439 165.329 831.474 165.907 831.497 166.497C831.52 167.063 831.543 167.642 831.567 168.231V179.66H826.873V155.374H833.514L844.293 173.571H844.397C844.374 173.005 844.351 172.449 844.327 171.905C844.304 171.338 844.281 170.782 844.258 170.238C844.258 169.671 844.246 169.116 844.223 168.571C844.2 168.005 844.177 167.438 844.154 166.871V155.374H848.882V179.66Z" fill="#26263C" fill-opacity="0.42"/>
<path d="M868.196 179.66H862.946V159.66H856.201V155.374H874.942V159.66H868.196V179.66Z" fill="#26263C" fill-opacity="0.42"/>
<path d="M896.538 179.66H882.247V155.374H896.538V159.592H887.498V164.932H895.912V169.15H887.498V175.408H896.538V179.66Z" fill="#26263C" fill-opacity="0.42"/>
<path d="M912.413 155.374C914.662 155.374 916.516 155.646 917.976 156.19C919.437 156.712 920.526 157.517 921.245 158.605C921.963 159.671 922.323 161.02 922.323 162.653C922.323 163.764 922.102 164.739 921.662 165.578C921.245 166.395 920.677 167.098 919.958 167.687C919.263 168.254 918.509 168.719 917.698 169.082L925 179.66H919.159L913.248 170.34H910.431V179.66H905.181V155.374H912.413ZM912.031 159.592H910.431V166.156H912.135C913.294 166.156 914.233 166.032 914.951 165.782C915.67 165.533 916.191 165.159 916.516 164.66C916.841 164.138 917.003 163.515 917.003 162.789C917.003 162.018 916.817 161.406 916.446 160.952C916.099 160.476 915.554 160.136 914.812 159.932C914.094 159.705 913.166 159.592 912.031 159.592Z" fill="#26263C" fill-opacity="0.42"/>
<path d="M38.276 4.69223H12.015C6.57281 4.69223 2.16141 9.10398 2.16141 14.5458V170.16C2.16141 175.602 6.57316 180.014 12.015 180.014H38.276C43.7182 180.014 48.1296 175.602 48.1296 170.16V14.5458C48.1296 9.10398 43.7182 4.69223 38.276 4.69223ZM25.1455 40.6209C21.5205 40.6209 18.5818 37.6821 18.5818 34.0572C18.5818 30.4319 21.5205 27.4935 25.1455 27.4935C28.7705 27.4935 31.7092 30.4322 31.7092 34.0572C31.7092 37.6821 28.7705 40.6209 25.1455 40.6209Z" fill="#FEF2A8"/>
<path d="M38.276 4.69223H28.5761C32.5564 4.69223 35.7831 8.59457 35.7831 13.4082V151.054C35.7831 155.868 32.5564 159.771 28.5761 159.771H9.36844C5.38805 159.771 2.16141 155.868 2.16141 151.054V170.16C2.16141 175.602 6.57316 180.014 12.015 180.014H38.276C43.7182 180.014 48.1296 175.602 48.1296 170.16V14.5458C48.1296 9.10398 43.7182 4.69223 38.276 4.69223Z" fill="#EEB6A8"/>
<path d="M174.891 173.35L75.6773 11.45C73.3693 7.68367 67.5696 9.31949 67.5696 13.7365V175.637C67.5696 178.054 69.5289 180.013 71.9459 180.013H171.159C174.579 180.013 176.678 176.266 174.891 173.35ZM128.79 149.844H92.8311C91.955 149.844 91.2449 149.134 91.2449 148.258V89.578C91.2449 87.9774 93.3469 87.3843 94.1836 88.7494L130.143 147.429C130.79 148.486 130.03 149.844 128.79 149.844Z" fill="#78EAC4"/>
<path d="M174.891 173.35L75.6773 11.45C74.5977 9.68828 72.7541 9.10891 71.0975 9.44289C71.8 9.64785 72.4606 10.217 72.9155 11.2183L138.334 155.243C139.512 157.837 138.128 161.17 135.873 161.17H70.4552C68.8616 161.17 67.5696 159.427 67.5696 157.277V175.637C67.5696 178.054 69.5289 180.013 71.9459 180.013H171.159C174.579 180.013 176.678 176.266 174.891 173.35Z" fill="#71AFC4"/>
<path d="M26.7529 63.4485H2.16105C0.9675 63.4485 0 62.481 0 61.2875C0 60.0939 0.967852 59.1264 2.16105 59.1264H26.7529C27.9464 59.1264 28.9139 60.0943 28.9139 61.2875C28.9139 62.4807 27.9464 63.4485 26.7529 63.4485Z" fill="#D08372"/>
<path d="M18.5818 79.6573H2.16105C0.9675 79.6573 0 78.6898 0 77.4962C0 76.3027 0.967852 75.3352 2.16105 75.3352H18.5815C19.775 75.3352 20.7425 76.303 20.7425 77.4962C20.7429 78.6898 19.7754 79.6573 18.5818 79.6573Z" fill="#D08372"/>
<path d="M26.7529 95.8664H2.16105C0.9675 95.8664 0 94.8986 0 93.7054C0 92.5122 0.967852 91.5443 2.16105 91.5443H26.7529C27.9464 91.5443 28.9139 92.5122 28.9139 93.7054C28.9139 94.8986 27.9464 95.8664 26.7529 95.8664Z" fill="#D08372"/>
<path d="M18.5818 112.075H2.16105C0.9675 112.075 0 111.107 0 109.914C0 108.721 0.967852 107.753 2.16105 107.753H18.5815C19.775 107.753 20.7425 108.721 20.7425 109.914C20.7425 111.107 19.7754 112.075 18.5818 112.075Z" fill="#D08372"/>
<path d="M26.7529 128.284H2.16105C0.9675 128.284 0 127.317 0 126.123C0 124.93 0.967852 123.962 2.16105 123.962H26.7529C27.9464 123.962 28.9139 124.93 28.9139 126.123C28.9139 127.317 27.9464 128.284 26.7529 128.284Z" fill="#D08372"/>
<path d="M18.5818 144.493H2.16105C0.9675 144.493 0 143.525 0 142.332C0 141.139 0.967852 140.171 2.16105 140.171H18.5815C19.775 140.171 20.7425 141.139 20.7425 142.332C20.7429 143.526 19.7754 144.493 18.5818 144.493Z" fill="#D08372"/>
<path d="M26.7529 160.702H2.16105C0.9675 160.702 0 159.734 0 158.541C0 157.348 0.967852 156.38 2.16105 156.38H26.7529C27.9464 156.38 28.9139 157.348 28.9139 158.541C28.9139 159.734 27.9464 160.702 26.7529 160.702Z" fill="#D08372"/>
<path d="M81.2292 74.1399C79.2397 74.1399 77.6271 72.5273 77.6271 70.5378V61.6257C77.6271 59.6362 79.2397 58.0236 81.2292 58.0236C83.2187 58.0236 84.8313 59.6362 84.8313 61.6257V70.5378C84.831 72.5273 83.2184 74.1399 81.2292 74.1399Z" fill="white"/>
<path d="M81.2292 53.8843C79.2397 53.8843 77.6271 52.2716 77.6271 50.2821V48.7029C77.6271 46.7134 79.2397 45.1008 81.2292 45.1008C83.2187 45.1008 84.8313 46.7134 84.8313 48.7029V50.2821C84.831 52.2713 83.2184 53.8843 81.2292 53.8843Z" fill="white"/>
<path d="M159.174 34.6996C159.872 31.0766 157.5 27.5742 153.876 26.8768C150.253 26.1795 146.751 28.5513 146.053 32.1743C145.356 35.7974 147.728 39.2998 151.351 39.9971C154.974 40.6945 158.477 38.3227 159.174 34.6996Z" fill="#78EAC4"/>
<path d="M166.95 110.653C168.47 110.294 169.411 108.77 169.052 107.25C168.692 105.729 167.168 104.788 165.648 105.148C164.128 105.507 163.187 107.031 163.546 108.551C163.906 110.071 165.429 111.012 166.95 110.653Z" fill="#78EAC4"/>
<path d="M108.437 4.67605L110.707 11.0576C110.804 11.3308 110.996 11.5473 111.239 11.6567L116.909 14.2111C117.709 14.5722 117.709 15.8484 116.909 16.2091L111.239 18.7635C110.996 18.8729 110.804 19.0894 110.707 19.3626L108.437 25.7441C108.117 26.6455 106.983 26.6455 106.662 25.7441L104.393 19.3626C104.296 19.0894 104.103 18.8729 103.86 18.7635L98.1907 16.2091C97.3899 15.8484 97.3899 14.5718 98.1907 14.2111L103.86 11.6567C104.103 11.5473 104.296 11.3308 104.393 11.0576L106.662 4.67605C106.983 3.77465 108.117 3.77465 108.437 4.67605Z" fill="#BDF4E3"/>
<path d="M167.534 51.8811L170.652 60.4838C170.786 60.8522 171.05 61.144 171.384 61.2913L179.175 64.7349C180.275 65.2214 180.275 66.942 179.175 67.4282L171.384 70.8718C171.05 71.0191 170.786 71.3112 170.652 71.6793L167.534 80.282C167.093 81.4974 165.535 81.4974 165.095 80.282L161.976 71.6793C161.843 71.3109 161.578 71.0191 161.245 70.8718L153.455 67.4282C152.354 66.9416 152.354 65.2211 153.455 64.7349L161.245 61.2913C161.579 61.144 161.843 60.8519 161.976 60.4838L165.095 51.8811C165.535 50.6657 167.093 50.6657 167.534 51.8811Z" fill="#BDF4E3"/>
</svg>
