<svg width="2308" height="1486" viewBox="0 0 2308 1486" fill="none" xmlns="http://www.w3.org/2000/svg">
<g clip-path="url(#clip0_107_3411)">
<rect width="2308" height="1486" fill="#F5F2FD"/>
<path d="M2470.33 571.561C2444.27 491.055 2424.38 418.201 2405.56 333.323C2387.06 249.838 2372.11 165.253 2361.12 79.7488C2355.76 38.0887 2352.5 -4.02945 2346.95 -45.6325C2341.38 -87.3466 2332.39 -130.805 2309.83 -165.656C2298.01 -183.9 2282.81 -198.921 2261.14 -206.759C2239.7 -214.499 2214.69 -211.81 2191.49 -205.671C2146.75 -193.819 2102.24 -179.556 2058.01 -165.259C1980.8 -140.264 1888.48 -109.695 1862.72 -24.5987C1839.27 52.8491 1873.37 128.798 1923.51 181.101C1948.99 207.675 1979.23 229.081 2013.72 244.625C2031.13 252.477 2049.41 258.394 2067.74 264.489C2076.12 267.284 2084.46 270.138 2092.61 273.404C2093.77 273.86 2099.17 276.387 2098.87 276.169C2102.77 278.147 2106.64 280.185 2110.32 282.464C2113.92 284.676 2117.35 287.078 2120.71 289.62C2120.83 289.724 2120.93 289.836 2121.06 289.986C2122.22 291.129 2123.39 292.243 2124.53 293.416C2127.16 296.127 2129.59 299.014 2131.87 302.017C2132.29 302.576 2132.7 303.165 2133.12 303.723C2133.07 303.738 2135.17 306.961 2135.65 307.809C2137.46 311.118 2139.11 314.543 2140.58 318.048C2141.2 319.562 2141.79 321.062 2142.36 322.591C2142.54 323.058 2143.21 324.98 2143.64 326.175C2143.82 326.805 2143.99 327.369 2144.02 327.524C2144.47 329.68 2144.97 331.822 2145.32 334.006C2146.02 338.375 2146.31 342.821 2146.64 347.275C2146.73 348.288 2146.78 348.91 2146.83 349.295C2146.79 349.686 2146.74 350.218 2146.67 350.971C2146.37 354.93 2145.99 358.866 2145.38 362.822C2144.82 366.364 2144.07 369.867 2143.24 373.392C2143.91 370.22 2141.08 379.814 2140.27 381.802C2138.72 385.636 2136.87 389.349 2135.01 393.085C2134.69 393.724 2134.49 394.136 2134.37 394.408C2133.39 396.069 2132.32 397.683 2131.28 399.313C2126.05 407.5 2120.44 415.49 2115.43 423.774C2103.34 443.67 2093.42 464.41 2092.57 486.703C2091.7 509.047 2096.04 530.243 2105.98 549.376C2122.18 580.596 2148.26 606.637 2178.98 624.928C2208.8 642.685 2242.41 653.438 2278.57 657.513C2313.06 661.401 2354.21 658.943 2388.35 643.962C2396.55 640.369 2404.15 636.222 2411.38 631.479C2422.64 634.882 2435.96 634.063 2446.39 628.298C2469.65 615.463 2477.24 593.057 2470.28 571.553L2470.33 571.561Z" fill="#E3E0FA"/>
<path d="M397.999 1416.51C383.325 1393.21 363.175 1373.57 339.274 1361.89C326.797 1355.8 314.165 1351.78 300.736 1349.08C289.017 1346.73 277.144 1344.93 265.758 1341.03C264.268 1340.52 262.816 1339.93 261.325 1339.4C261.261 1339.37 261.196 1339.34 261.132 1339.32C261.261 1339.39 261.389 1339.45 261.543 1339.55C261.402 1339.47 261.261 1339.4 261.119 1339.32C260.181 1338.91 258.614 1337.96 260.181 1338.8C258.177 1337.71 256.185 1336.64 254.257 1335.34C254.103 1335.24 253.756 1335.01 253.384 1334.74C252.754 1334.15 250.724 1332.49 250.698 1332.45C249.811 1331.55 248.937 1330.62 248.115 1329.65C247.087 1328.46 244.851 1324.23 247.28 1328.79C246.046 1326.48 244.671 1324.2 243.425 1321.88C243.27 1321.59 243.091 1321.18 242.936 1320.78C243.052 1321.12 243.168 1321.49 243.322 1321.97C243.181 1321.53 243.026 1321.09 242.872 1320.64C242.474 1319.61 242.217 1318.69 242.589 1319.79C242.461 1319.4 242.332 1319.02 242.217 1318.64C241.446 1316.07 240.842 1313.47 240.302 1310.84C239.994 1309.36 239.762 1307.86 239.454 1306.39C239.403 1306.16 239.364 1305.96 239.325 1305.8C239.325 1305.67 239.313 1305.56 239.3 1305.42C237.462 1281.09 240.636 1256.71 238.85 1232.39C237.783 1217.74 234.995 1203.98 229.444 1190.57C224.432 1178.46 215.733 1167.29 206.853 1158.19C197.562 1148.68 186.768 1140.72 175.511 1134.2C170.359 1131.22 165.077 1128.52 159.719 1126.02C156.249 1124.4 152.754 1122.84 149.259 1121.27C148.359 1120.87 147.472 1120.47 146.573 1120.07C146.406 1119.98 143.553 1118.65 143.18 1118.47C138.015 1116.02 132.9 1113.4 128.056 1110.23C127.002 1109.54 126 1108.78 124.946 1108.1C124.522 1107.82 124.214 1107.63 123.944 1107.46C123.841 1107.37 123.712 1107.24 123.507 1107.06C122.35 1106.04 121.232 1104.96 120.166 1103.83C119.832 1103.47 117.621 1100.86 117.737 1101.15C111.402 1092 112.057 1082.57 113.227 1070.15C114.512 1056.57 117.159 1041.57 115.475 1026.54C113.869 1012.24 109.269 998.33 101.443 986.543C84.8534 961.569 60.2967 946.915 32.5146 941.347C25.8326 940.003 19.0605 939.103 12.3013 938.452C7.64955 938.009 2.72792 938.771 -2.06519 939.712C-4.58383 938.494 -7.42372 937.87 -10.5849 938.023C-21.2762 938.535 -33.4453 948.328 -32.1732 961.292C-25.6196 1028.58 -33.6381 1095.91 -38.3541 1163.01C-43.1344 1230.57 -40.8727 1297.31 -32.7 1364.47C-28.5109 1398.96 -23.435 1433.3 -18.0894 1467.6C-14.9925 1487.48 -12.7308 1510.13 8.4591 1516.89C15.6295 1519.17 23.481 1519.03 30.9084 1519.41C39.0297 1519.82 47.151 1520.24 55.2723 1520.64C118.971 1523.88 182.682 1527.11 246.38 1530.35C278.441 1531.98 310.503 1533.67 342.577 1535.23C358.896 1536.01 375.139 1537.86 390.392 1530.14C402.985 1523.77 411.916 1509.92 415.193 1495.61C421.49 1468.12 412.34 1439.28 397.999 1416.52V1416.51Z" fill="#9998EF" fill-opacity="0.1"/>
<path d="M142.63 435.343C148.423 435.61 152.948 440.524 152.738 446.32C152.527 452.115 147.661 456.596 141.868 456.329C136.075 456.062 131.55 451.148 131.76 445.353C131.97 439.558 136.837 435.076 142.63 435.343Z" fill="#EF8BBD" fill-opacity="0.21"/>
<path d="M2088.77 860.488C2091.53 860.615 2093.69 862.955 2093.58 865.715C2093.48 868.474 2091.17 870.608 2088.41 870.481C2085.65 870.354 2083.5 868.014 2083.6 865.254C2083.7 862.495 2086.01 860.361 2088.77 860.488Z" fill="#6941D3" fill-opacity="0.2"/>
<path d="M2083.85 1353.44L2096.52 1348.92C2097.06 1348.73 2097.5 1348.31 2097.73 1347.78L2103.19 1335.27C2103.97 1333.5 2106.46 1333.62 2107.1 1335.45L2111.64 1348.42C2111.83 1348.97 2112.24 1349.43 2112.77 1349.67L2125.07 1355.34C2126.81 1356.14 2126.71 1358.69 2124.92 1359.33L2112.25 1363.85C2111.71 1364.05 2111.27 1364.46 2111.04 1365L2105.58 1377.5C2104.8 1379.27 2102.31 1379.16 2101.67 1377.32L2097.13 1364.36C2096.94 1363.8 2096.53 1363.35 2096 1363.1L2083.7 1357.43C2081.96 1356.63 2082.06 1354.08 2083.85 1353.44Z" fill="#FFE266"/>
<path d="M450.208 184.443L462.879 179.92C463.422 179.726 463.862 179.313 464.095 178.778L469.556 166.27C470.327 164.503 472.824 164.618 473.465 166.45L478 179.419C478.195 179.974 478.603 180.425 479.129 180.669L491.43 186.343C493.168 187.144 493.075 189.691 491.285 190.331L478.614 194.854C478.072 195.047 477.632 195.46 477.398 195.996L471.937 208.503C471.166 210.27 468.669 210.155 468.028 208.323L463.493 195.355C463.299 194.8 462.891 194.348 462.364 194.105L450.064 188.431C448.325 187.629 448.418 185.082 450.208 184.443Z" fill="#5AB9EF"/>
<path d="M714.257 1419.88C715.912 1419.96 717.205 1421.36 717.145 1423.02C717.084 1424.67 715.694 1425.95 714.039 1425.88C712.384 1425.8 711.091 1424.4 711.151 1422.74C711.211 1421.08 712.601 1419.8 714.257 1419.88Z" fill="#5AB9EF"/>
<path d="M142.769 919.878L152.166 916.594C152.568 916.454 152.894 916.154 153.067 915.764L157.111 906.665C157.683 905.38 159.535 905.466 160.011 906.799L163.382 916.24C163.526 916.644 163.829 916.973 164.22 917.15L173.347 921.287C174.636 921.872 174.569 923.726 173.241 924.19L163.845 927.474C163.442 927.614 163.117 927.914 162.944 928.304L158.9 937.403C158.328 938.688 156.476 938.603 156 937.269L152.629 927.828C152.484 927.424 152.182 927.095 151.791 926.918L142.664 922.78C141.374 922.196 141.441 920.342 142.769 919.878Z" fill="#E068BD" fill-opacity="0.18"/>
<path d="M2215.94 1033.62C2223.39 1033.96 2229.21 1040.28 2228.94 1047.73C2228.67 1055.18 2222.41 1060.94 2214.96 1060.6C2207.51 1060.26 2201.7 1053.94 2201.97 1046.49C2202.24 1039.04 2208.49 1033.28 2215.94 1033.62Z" fill="#6941D3" fill-opacity="0.15"/>
</g>
<defs>
<clipPath id="clip0_107_3411">
<rect width="2308" height="1486" fill="white"/>
</clipPath>
</defs>
</svg>
